# xmcd CD database file
#
# Track frame offsets:
#	150
#	17762
#	40065
#	54010
#
# Disc length: 885 seconds
#
# Revision: 0
# Processed by: cddbd v1.4PL0 Copyright (c) Steve Scherf et al.
# Submitted via: CDex 1.40Release
#
DISCID=22037304
DTITLE=Idha - A Woman In A Man's World
DYEAR=1994
DGENRE=Country
TTITLE0=Ooh La La
TTITLE1=A Song For You
TTITLE2=Willin'
TTITLE3=Going To Mexico
EXTD=YEAR: 1994 ID3G: 2
EXTT0=
EXTT1=
EXTT2=
EXTT3=
PLAYORDER=
